<svg width="150" height="42" viewBox="0 0 150 42" fill="none" xmlns="http://www.w3.org/2000/svg">
<path d="M0.44397 0.360035V41.4706L19.1946 20.916L0.44397 0.360035Z" fill="url(#paint0_linear)"/>
<path d="M24.2309 15.3949L16.6615 10.5634L0.44397 0.210854V0.360035L19.1947 20.916L24.2309 15.3949Z" fill="url(#paint1_linear)"/>
<path d="M0.44397 41.4706V41.6198L16.6615 31.2672L24.2302 26.4365L19.1946 20.916L0.44397 41.4706Z" fill="url(#paint2_linear)"/>
<path d="M24.2308 15.3949L19.1946 20.916L24.2302 26.4365L32.8803 20.9153L24.2308 15.3949Z" fill="url(#paint3_linear)"/>
<path d="M118.49 28.9516C117.786 28.9516 117.143 28.8082 116.561 28.5207C115.975 28.2297 115.469 27.7721 115.096 27.1946H114.977C115.056 27.893 115.096 28.556 115.096 29.1808V34.0995H113.458V16.7779H114.79L115.017 18.4146H115.096C115.517 17.7602 116.007 17.2874 116.566 16.9963C117.125 16.7058 117.767 16.5602 118.49 16.5602C119.924 16.5602 121.031 17.1022 121.81 18.1854C122.589 19.2693 122.981 20.7892 122.981 22.7451C122.981 24.7097 122.584 26.234 121.792 27.3222C120.998 28.4083 119.898 28.9516 118.49 28.9516V28.9516ZM118.253 18.0982C117.148 18.0982 116.35 18.4362 115.856 19.1129C115.362 19.7896 115.109 20.8656 115.096 22.3423V22.7459C115.096 24.4258 115.349 25.6279 115.856 26.3514C116.362 27.0757 117.174 27.4375 118.292 27.4375C119.227 27.4375 119.959 27.0195 120.488 26.1835C121.018 25.3475 121.282 24.1944 121.282 22.725C121.282 21.2346 121.018 20.0901 120.488 19.2938C119.959 18.496 119.213 18.0982 118.253 18.0982V18.0982ZM126.772 28.7333H125.133V11.7598H126.772V28.7333ZM136.188 28.7333L135.862 27.0317H135.783C135.244 27.7813 134.706 28.2886 134.17 28.5531C133.634 28.819 132.963 28.9516 132.162 28.9516C131.089 28.9516 130.249 28.6461 129.641 28.0357C129.032 27.4252 128.729 26.5561 128.729 25.429C128.729 23.0147 130.476 21.7506 133.968 21.6324L135.803 21.5668V20.8252C135.803 19.8869 135.621 19.1943 135.254 18.7475C134.889 18.3 134.306 18.0766 133.503 18.0766C132.601 18.0766 131.582 18.3821 130.444 18.9925L129.942 17.6074C130.475 17.2874 131.058 17.0366 131.694 16.855C132.33 16.6734 132.964 16.5826 133.604 16.5826C134.893 16.5826 135.848 16.899 136.469 17.5317C137.091 18.1645 137.402 19.1792 137.402 20.5752V28.7347H136.189V28.7333H136.188ZM132.488 27.4577C133.506 27.4577 134.307 27.1485 134.891 26.5309C135.473 25.9133 135.764 25.047 135.764 23.9335V22.854L134.125 22.9289C132.823 22.9801 131.884 23.2042 131.309 23.6013C130.733 23.9977 130.446 24.6131 130.446 25.4491C130.446 26.1035 130.624 26.6022 130.983 26.9431C131.343 27.2869 131.843 27.4577 132.488 27.4577ZM138.353 16.7779H140.108L142.476 23.5955C142.996 25.1515 143.319 26.2758 143.444 26.9669H143.523C143.608 26.595 143.787 25.9608 144.06 25.0614C144.332 24.1642 145.226 21.4025 146.738 16.7764H148.494L143.847 30.3901C143.386 31.7349 142.849 32.6891 142.232 33.2548C141.617 33.8177 140.862 34.0995 139.968 34.0995C139.467 34.0995 138.975 34.0375 138.488 33.9143V32.465C138.887 32.5564 139.294 32.6004 139.702 32.5961C140.827 32.5961 141.628 31.8978 142.109 30.5018L142.71 28.801L138.353 16.7779V16.7779Z" fill="white"/>
<path d="M88.1493 17.8892C88.6701 18.3648 89.7548 19.3644 89.7548 21.2656C89.7548 23.1141 88.805 23.9912 87.8553 24.8156C87.5613 25.1399 87.221 25.4916 87.221 26.0422C87.221 26.5914 87.5607 26.8919 87.809 27.1168L88.6238 27.8158C89.6192 28.7412 90.5233 29.5923 90.5233 31.3176C90.5233 33.6685 88.4648 36.0439 84.5751 36.0439C81.2944 36.0439 79.7116 34.3185 79.7116 32.4671C79.7116 31.567 80.1178 30.2914 81.4534 29.4165C82.8549 28.4673 84.7557 28.3427 85.7733 28.2655C85.4565 27.8158 85.0947 27.3409 85.0947 26.5676C85.0947 26.1424 85.2088 25.8916 85.3215 25.5918C85.0719 25.617 84.8235 25.6415 84.5973 25.6415C82.2004 25.6415 80.8433 23.6662 80.8433 21.7167C80.8433 20.5658 81.3185 19.2902 82.2904 18.3655C83.5804 17.1901 85.1182 16.9898 86.3404 16.9898H90.9985L89.5508 17.8899H88.1493V17.8892ZM86.5431 28.9927C86.3632 28.9675 86.2485 28.9675 86.0236 28.9675C85.8202 28.9675 84.5973 29.0172 83.6469 29.3696C83.1495 29.5671 81.7018 30.1681 81.7018 31.9446C81.7018 33.7182 83.2636 34.9953 85.684 34.9953C87.8533 34.9953 89.0084 33.8422 89.0084 32.2934C89.0084 31.0149 88.2627 30.3433 86.5431 28.9927ZM87.1995 24.2405C87.7191 23.6647 87.7634 22.8655 87.7634 22.4151C87.7634 20.6148 86.7915 17.8142 84.9148 17.8142C84.3261 17.8142 83.6932 18.1392 83.3301 18.6401C82.9468 19.1655 82.8321 19.8401 82.8321 20.4908C82.8321 22.1657 83.7147 24.9418 85.6611 24.9418C86.227 24.941 86.8351 24.6412 87.1995 24.2405V24.2405ZM73.9101 28.592C70.3203 28.592 68.4006 25.496 68.4006 22.699C68.4006 19.4271 70.8164 16.633 74.2504 16.633C77.5677 16.633 79.6465 19.5035 79.6465 22.5253C79.6458 25.47 77.5925 28.592 73.9101 28.592V28.592ZM76.7314 26.5698C77.275 25.7705 77.4099 24.7724 77.4099 23.7966C77.4099 21.5992 76.4621 17.4056 73.6618 17.4056C72.9146 17.4131 72.1943 17.7145 71.6299 18.256C70.7493 19.1287 70.5902 20.2278 70.5902 21.3023C70.5902 23.7728 71.6971 27.8411 74.4303 27.8411C75.3103 27.8418 76.2131 27.3683 76.7314 26.5698V26.5698ZM61.6702 28.592C58.0798 28.592 56.1601 25.496 56.1601 22.699C56.1601 19.4271 58.5771 16.633 62.0098 16.633C65.3291 16.633 67.4065 19.5035 67.4065 22.5253C67.4059 25.47 65.3512 28.592 61.6702 28.592ZM64.4927 26.5698C65.0351 25.7705 65.1707 24.7724 65.1707 23.7966C65.1707 21.5992 64.2216 17.4056 61.4212 17.4056C60.674 17.4132 59.9537 17.7147 59.3894 18.256C58.5087 19.1287 58.351 20.2278 58.351 21.3023C58.351 23.7728 59.4565 27.8411 62.1904 27.8411C63.071 27.8418 63.9739 27.3683 64.4927 26.5698V26.5698ZM54.4346 28.2007L51.1877 29.0287C49.8703 29.2543 48.6898 29.4539 47.4421 29.4539C41.1752 29.4539 38.792 24.3595 38.792 20.3683C38.792 15.4994 42.1738 10.9822 47.9643 10.9822C49.1904 10.9822 50.3703 11.1825 51.4374 11.509C53.14 12.0358 53.9346 12.688 54.4346 13.0649L52.5494 15.0482L51.7555 15.2479L52.3232 14.2432C51.5514 13.4159 50.1428 11.8852 47.4649 11.8852C43.8778 11.8852 41.1758 14.8983 41.1758 19.2902C41.1758 24.0078 44.2637 28.4508 49.2126 28.4508C50.6669 28.4508 51.4145 28.125 52.0964 27.823V23.7836L48.6689 23.9833L50.4843 22.9037H55.2977L54.7077 23.5299C54.5474 23.682 54.5259 23.7317 54.4802 23.9314C54.4568 24.1577 54.4353 24.887 54.4353 25.1378L54.4346 28.2007V28.2007Z" fill="white"/>
<path d="M95.3262 27.4779C94.5766 27.4029 94.4188 27.253 94.4188 26.2714V12.0646L94.4312 11.9025C94.5231 11.0247 94.7493 10.8741 95.454 10.4215H92.2071L90.5038 11.3252H92.239V11.3367L92.2377 11.3274V26.8235C92.2377 27.3236 92.1484 27.4007 91.6263 28.1531H95.645L96.4852 27.6018C96.0974 27.5528 95.7115 27.529 95.3262 27.4779ZM104.564 27.7092C104.317 27.8598 104.069 28.0342 103.821 28.1582C103.075 28.5329 102.31 28.6317 101.632 28.6317C100.913 28.6317 99.7849 28.5805 98.6331 27.6587C97.0334 26.412 96.3346 24.2679 96.3346 22.3978C96.3346 18.5356 99.1754 16.641 101.499 16.641C102.31 16.641 103.145 16.8651 103.821 17.3393C104.948 18.1602 105.242 19.2318 105.397 19.8055L100.1 22.1744L98.3639 22.3243C98.9264 25.4909 100.866 27.333 103.008 27.333C104.158 27.333 104.993 26.8847 105.76 26.4617L104.564 27.7092V27.7092ZM102.446 20.2797C102.873 20.1053 103.099 19.9561 103.099 19.6073C103.099 18.6106 102.084 17.4633 100.866 17.4633C99.9629 17.4633 98.2726 18.2365 98.2726 20.9283C98.2726 21.3521 98.3176 21.8003 98.3404 22.25L102.446 20.2797V20.2797ZM106.74 16.8118V18.4564H106.559V16.8118H106.066V16.6417H107.231V16.8118H106.74V16.8118ZM108.768 18.4564V16.7959H108.76L108.301 18.4564H108.16L107.698 16.7959H107.692V18.4564H107.528V16.641H107.809L108.228 18.1083H108.234L108.646 16.641H108.932V18.4564H108.768V18.4564Z" fill="white"/>
<defs>
<linearGradient id="paint0_linear" x1="9.81963" y1="0.360035" x2="9.81963" y2="41.4713" gradientUnits="userSpaceOnUse">
<stop stop-color="#207CB0"/>
<stop offset="0.376" stop-color="#3CB2BF"/>
<stop offset="0.796" stop-color="#58E9CE"/>
<stop offset="1" stop-color="#63FFD4"/>
</linearGradient>
<linearGradient id="paint1_linear" x1="0.44397" y1="10.5634" x2="24.2309" y2="10.5634" gradientUnits="userSpaceOnUse">
<stop stop-color="#4BC3AE"/>
<stop offset="1" stop-color="#DEE999"/>
</linearGradient>
<linearGradient id="paint2_linear" x1="12.3371" y1="20.916" x2="12.3371" y2="41.6205" gradientUnits="userSpaceOnUse">
<stop stop-color="#EC403D"/>
<stop offset="0.384" stop-color="#C93B75"/>
<stop offset="0.799" stop-color="#A636AC"/>
<stop offset="1" stop-color="#9934C2"/>
</linearGradient>
<linearGradient id="paint3_linear" x1="26.0378" y1="15.3949" x2="26.0378" y2="26.4365" gradientUnits="userSpaceOnUse">
<stop stop-color="#FF8877"/>
<stop offset="0.612" stop-color="#FFB175"/>
<stop offset="1" stop-color="#FFC774"/>
</linearGradient>
</defs>
</svg>
