<svg width="150" height="45" viewBox="0 0 150 45" fill="none" xmlns="http://www.w3.org/2000/svg">
<g clip-path="url(#clip0)">
<path d="M32.8489 21.474C32.8184 18.252 35.8234 16.686 35.9554 16.614C34.2499 14.418 31.6103 14.112 30.6865 14.085C28.4734 13.878 26.3211 15.264 25.1943 15.264C24.0471 15.264 22.3009 14.112 20.433 14.139C18.0269 14.175 15.763 15.408 14.5346 17.334C11.9865 21.249 13.8849 27.009 16.3315 30.177C17.5599 31.725 18.9812 33.462 20.8593 33.399C22.6867 33.336 23.377 32.364 25.58 32.364C27.7729 32.364 28.4124 33.399 30.321 33.363C32.2905 33.336 33.5189 31.806 34.7067 30.24C36.1178 28.467 36.6863 26.712 36.7066 26.622C36.6559 26.604 32.8895 25.326 32.8489 21.474" fill="white"/>
<path d="M29.2449 12.006C30.2296 10.917 30.8997 9.43201 30.7169 7.92001C29.2956 7.97401 27.5089 8.79301 26.4835 9.86401C25.58 10.809 24.7679 12.348 24.9709 13.797C26.5749 13.905 28.2195 13.077 29.2449 12.006" fill="white"/>
<path d="M59.3657 33.174H56.8074L55.4064 29.268H50.5335L49.2036 33.174H46.7163L51.5385 19.881H54.5232L59.3657 33.174ZM54.9902 27.63L53.7212 24.165C53.5892 23.805 53.3354 22.977 52.9699 21.663H52.9192C52.7669 22.23 52.5334 23.067 52.2085 24.165L50.9598 27.63H54.9902Z" fill="white"/>
<path d="M71.7614 28.269C71.7614 29.898 71.264 31.185 70.2589 32.13C69.3656 32.976 68.2488 33.39 66.9291 33.39C65.4976 33.39 64.4723 32.94 63.8429 32.031V37.062H61.4368V26.739C61.4368 25.713 61.4064 24.669 61.3455 23.589H63.4571L63.5891 25.11H63.6297C64.4317 23.967 65.6499 23.391 67.2742 23.391C68.5534 23.391 69.6092 23.841 70.462 24.732C71.3351 25.632 71.7614 26.802 71.7614 28.269V28.269ZM69.3148 28.341C69.3148 27.405 69.0813 26.64 68.6042 26.037C68.0864 25.407 67.3859 25.092 66.5128 25.092C65.924 25.092 65.386 25.272 64.8987 25.614C64.4215 25.965 64.0967 26.415 63.9545 26.982C63.8835 27.243 63.8429 27.459 63.8429 27.63V29.232C63.8429 29.925 64.0865 30.519 64.5637 30.996C65.0408 31.473 65.6702 31.716 66.4418 31.716C67.3453 31.716 68.0458 31.401 68.5534 30.789C69.061 30.168 69.3148 29.358 69.3148 28.341V28.341Z" fill="white"/>
<path d="M84.1875 28.269C84.1875 29.898 83.6901 31.185 82.685 32.13C81.7916 32.976 80.6749 33.39 79.3551 33.39C77.9237 33.39 76.8983 32.94 76.2689 32.031V37.062H73.8629V26.739C73.8629 25.713 73.8324 24.669 73.7715 23.589H75.8831L76.0151 25.11H76.0557C76.8577 23.967 78.076 23.391 79.7003 23.391C80.9795 23.391 82.0353 23.841 82.8881 24.732C83.7611 25.632 84.1875 26.802 84.1875 28.269ZM81.7409 28.341C81.7409 27.405 81.5074 26.64 81.0302 26.037C80.5125 25.407 79.812 25.092 78.9389 25.092C78.3501 25.092 77.812 25.272 77.3247 25.614C76.8476 25.965 76.5329 26.415 76.3806 26.982C76.3095 27.243 76.2689 27.459 76.2689 27.63V29.232C76.2689 29.925 76.5125 30.519 76.9897 30.996C77.4668 31.473 78.0963 31.716 78.8678 31.716C79.7714 31.716 80.482 31.401 80.9795 30.789C81.4972 30.168 81.7409 29.358 81.7409 28.341V28.341Z" fill="white"/>
<path d="M98.0957 29.448C98.0957 30.582 97.6491 31.5 96.7658 32.211C95.7912 32.985 94.4309 33.372 92.6847 33.372C91.0705 33.372 89.7812 33.093 88.8066 32.544L89.365 30.771C90.4208 31.32 91.5781 31.599 92.837 31.599C93.7405 31.599 94.4512 31.419 94.9486 31.059C95.4562 30.699 95.71 30.213 95.71 29.61C95.71 29.07 95.4968 28.62 95.0907 28.251C94.6745 27.882 93.9842 27.54 93.0197 27.225C90.3701 26.352 89.0604 25.083 89.0604 23.418C89.0604 22.329 89.5274 21.438 90.4513 20.736C91.3751 20.043 92.6035 19.692 94.1365 19.692C95.4968 19.692 96.6339 19.899 97.5374 20.322L96.9283 22.05C96.0755 21.645 95.1212 21.438 94.0451 21.438C93.2025 21.438 92.5324 21.627 92.0553 21.987C91.6594 22.32 91.4563 22.716 91.4563 23.193C91.4563 23.715 91.6898 24.156 92.1467 24.489C92.5426 24.804 93.2735 25.146 94.3293 25.515C95.6186 25.974 96.5628 26.514 97.1719 27.135C97.7912 27.756 98.0957 28.53 98.0957 29.448" fill="white"/>
<path d="M106.055 25.191H103.405V29.844C103.405 31.023 103.872 31.617 104.806 31.617C105.232 31.617 105.588 31.581 105.872 31.518L105.943 33.138C105.466 33.291 104.847 33.372 104.075 33.372C103.121 33.372 102.39 33.111 101.852 32.598C101.314 32.085 101.05 31.221 101.05 30.015V25.182H99.4763V23.589H101.05V21.834L103.405 21.204V23.589H106.055V25.191" fill="white"/>
<path d="M117.973 28.305C117.973 29.781 117.496 30.987 116.552 31.932C115.557 32.904 114.237 33.39 112.593 33.39C111.009 33.39 109.74 32.922 108.796 31.995C107.852 31.068 107.385 29.889 107.385 28.467C107.385 26.982 107.872 25.767 108.836 24.822C109.811 23.877 111.121 23.4 112.765 23.4C114.349 23.4 115.628 23.868 116.593 24.804C117.516 25.704 117.973 26.874 117.973 28.305V28.305ZM115.486 28.35C115.486 27.468 115.273 26.721 114.846 26.091C114.339 25.326 113.618 24.948 112.684 24.948C111.72 24.948 110.979 25.326 110.481 26.091C110.045 26.721 109.842 27.486 109.842 28.395C109.842 29.277 110.055 30.033 110.481 30.654C110.999 31.419 111.73 31.797 112.664 31.797C113.577 31.797 114.298 31.41 114.826 30.636C115.263 29.988 115.486 29.232 115.486 28.35V28.35Z" fill="white"/>
<path d="M125.79 25.461C125.557 25.425 125.303 25.407 125.029 25.407C124.186 25.407 123.526 25.686 123.069 26.253C122.674 26.748 122.47 27.387 122.47 28.143V33.174H120.064V26.604C120.064 25.497 120.044 24.489 119.993 23.589H122.085L122.176 25.425H122.247C122.501 24.795 122.897 24.282 123.445 23.904C123.983 23.562 124.562 23.391 125.181 23.391C125.404 23.391 125.607 23.409 125.78 23.427L125.79 25.461" fill="white"/>
<path d="M136.531 27.927C136.531 28.305 136.501 28.629 136.44 28.89H129.232C129.262 29.835 129.607 30.564 130.277 31.059C130.886 31.5 131.668 31.725 132.633 31.725C133.699 31.725 134.673 31.572 135.546 31.275L135.922 32.751C134.897 33.147 133.688 33.345 132.298 33.345C130.623 33.345 129.303 32.904 128.348 32.031C127.394 31.158 126.917 29.979 126.917 28.512C126.917 27.072 127.364 25.866 128.257 24.903C129.191 23.877 130.45 23.364 132.034 23.364C133.587 23.364 134.775 23.877 135.567 24.903C136.206 25.731 136.531 26.73 136.531 27.927V27.927ZM134.237 27.378C134.257 26.748 134.095 26.199 133.77 25.74C133.353 25.146 132.714 24.849 131.861 24.849C131.079 24.849 130.44 25.137 129.952 25.713C129.557 26.172 129.313 26.73 129.242 27.369L134.237 27.378V27.378Z" fill="white"/>
<path d="M53.8328 15.129H52.5739L51.8836 13.212H49.4877L48.8279 15.129H47.6096L49.975 8.59497H51.4369L53.8328 15.129ZM51.6704 12.402L51.0511 10.692C50.9902 10.521 50.8684 10.107 50.6755 9.45897H50.6552C50.574 9.73797 50.4725 10.143 50.2999 10.692L49.6908 12.402H51.6704Z" fill="white"/>
<path d="M59.7617 10.413L57.7516 15.129H56.6044L54.6553 10.413H55.9243L56.8278 12.906C56.9801 13.32 57.112 13.716 57.2135 14.094H57.244C57.3354 13.752 57.4673 13.356 57.6298 12.906L58.5231 10.413H59.7617" fill="white"/>
<path d="M64.0458 15.129L63.9544 14.589H63.924C63.5585 15.021 63.0407 15.237 62.3707 15.237C61.4164 15.237 60.7463 14.643 60.7463 13.851C60.7463 12.69 61.8834 12.087 63.8529 12.087V11.997C63.8529 11.376 63.4773 11.07 62.7463 11.07C62.2184 11.07 61.7616 11.187 61.3555 11.421L61.1118 10.737C61.5991 10.467 62.2184 10.332 62.9392 10.332C64.3301 10.332 65.0306 10.98 65.0306 12.285V14.022C65.0306 14.499 65.0509 14.868 65.1118 15.147L64.0458 15.129V15.129ZM63.8834 12.78C62.5737 12.78 61.9138 13.059 61.9138 13.734C61.9138 14.229 62.2489 14.472 62.726 14.472C63.325 14.472 63.8834 14.067 63.8834 13.509V12.78Z" fill="white"/>
<path d="M67.6599 9.639C67.264 9.639 66.9595 9.369 66.9595 9.009C66.9595 8.649 67.2742 8.388 67.6802 8.388C68.0862 8.388 68.4111 8.649 68.4009 9.009C68.4009 9.387 68.0964 9.639 67.6599 9.639V9.639ZM67.0914 10.413H68.2689V15.12H67.0914V10.413V10.413Z" fill="white"/>
<path d="M70.3704 8.25299H71.548V15.12H70.3704V8.25299Z" fill="white"/>
<path d="M76.5631 15.129L76.4717 14.589H76.4413C76.0758 15.021 75.558 15.237 74.888 15.237C73.9337 15.237 73.2637 14.643 73.2637 13.851C73.2637 12.69 74.4007 12.087 76.3702 12.087V11.997C76.3702 11.376 75.9946 11.07 75.2636 11.07C74.7357 11.07 74.2789 11.187 73.8728 11.421L73.6291 10.728C74.1164 10.458 74.7357 10.323 75.4565 10.323C76.8473 10.323 77.5478 10.971 77.5478 12.276V14.013C77.5478 14.49 77.5681 14.859 77.6189 15.138H76.5631V15.129V15.129ZM76.4006 12.78C75.091 12.78 74.4312 13.059 74.4312 13.734C74.4312 14.229 74.7662 14.472 75.2433 14.472C75.8423 14.472 76.4006 14.067 76.4006 13.509V12.78Z" fill="white"/>
<path d="M82.3396 15.237C81.5883 15.237 81.03 14.958 80.6645 14.4H80.6442L80.5732 15.129H79.5681C79.5986 14.751 79.6087 14.328 79.6087 13.86V8.25299H80.7965V11.106H80.8168C81.1721 10.584 81.7305 10.323 82.5122 10.323C83.7913 10.323 84.6847 11.295 84.6847 12.708C84.6847 14.166 83.6898 15.237 82.3396 15.237V15.237ZM82.0959 11.142C81.4158 11.142 80.7965 11.664 80.7965 12.393V13.221C80.7965 13.869 81.3548 14.4 82.0756 14.4C82.9588 14.4 83.4867 13.761 83.4867 12.744C83.4867 11.79 82.9385 11.142 82.0959 11.142V11.142Z" fill="white"/>
<path d="M86.4309 8.25299H87.6086V15.12H86.4309V8.25299Z" fill="white"/>
<path d="M94.0346 13.023H90.4915C90.5118 13.914 91.1819 14.418 92.1666 14.418C92.6945 14.418 93.1717 14.337 93.5981 14.193L93.7808 14.922C93.2834 15.12 92.6945 15.21 92.0042 15.21C90.3392 15.21 89.3545 14.283 89.3545 12.834C89.3545 11.394 90.3596 10.305 91.8722 10.305C93.2224 10.305 94.0854 11.196 94.0854 12.546C94.0854 12.735 94.0752 12.897 94.0346 13.023V13.023ZM92.9585 12.276C92.9585 11.547 92.5422 11.034 91.791 11.034C91.1108 11.034 90.5829 11.556 90.5017 12.276H92.9585Z" fill="white"/>
<path d="M101.192 15.237C99.6386 15.237 98.6335 14.211 98.6335 12.816C98.6335 11.358 99.6589 10.323 101.283 10.323C102.816 10.323 103.842 11.304 103.842 12.735C103.842 14.202 102.786 15.237 101.192 15.237ZM101.243 11.088C100.39 11.088 99.8416 11.799 99.8416 12.78C99.8416 13.752 100.4 14.454 101.232 14.454C102.065 14.454 102.623 13.698 102.623 12.753C102.613 11.799 102.075 11.088 101.243 11.088V11.088Z" fill="white"/>
<path d="M110.187 15.129H109.009V12.42C109.009 11.583 108.644 11.169 107.933 11.169C107.232 11.169 106.755 11.7 106.755 12.321V15.12H105.578V11.763C105.578 11.349 105.568 10.899 105.537 10.413H106.573L106.623 11.142H106.654C106.969 10.638 107.618 10.314 108.339 10.314C109.456 10.314 110.187 11.07 110.187 12.303V15.129Z" fill="white"/>
<path d="M117.912 11.205H116.613V13.491C116.613 14.076 116.846 14.364 117.303 14.364C117.506 14.364 117.689 14.346 117.831 14.319L117.861 15.111C117.628 15.192 117.323 15.228 116.948 15.228C116.014 15.228 115.465 14.769 115.465 13.581V11.205H114.694V10.422H115.465V9.55801L116.623 9.24301V10.413H117.922V11.205" fill="white"/>
<path d="M124.166 15.129H122.988V12.438C122.988 11.592 122.623 11.169 121.912 11.169C121.303 11.169 120.735 11.538 120.735 12.285V15.12H119.557V8.25299H120.735V11.079H120.755C121.13 10.566 121.658 10.314 122.349 10.314C123.476 10.314 124.166 11.088 124.166 12.321V15.129" fill="white"/>
<path d="M130.196 13.023H126.653C126.673 13.914 127.343 14.418 128.328 14.418C128.856 14.418 129.333 14.337 129.76 14.193L129.942 14.922C129.445 15.12 128.856 15.21 128.166 15.21C126.501 15.21 125.516 14.283 125.516 12.834C125.516 11.394 126.521 10.305 128.034 10.305C129.384 10.305 130.247 11.196 130.247 12.546C130.247 12.735 130.237 12.897 130.196 13.023V13.023ZM129.12 12.276C129.12 11.547 128.704 11.034 127.953 11.034C127.272 11.034 126.734 11.556 126.663 12.276H129.12Z" fill="white"/>
</g>
<defs>
<clipPath id="clip0">
<rect width="150" height="45" fill="white"/>
</clipPath>
</defs>
</svg>
